{"asset":{"version":"2.0","generator":"THREE.GLTFExporter"},"scenes":[{"nodes":[0],"name":"AuxScene"}],"scene":0,"nodes":[{"mesh":0}],"bufferViews":[{"buffer":0,"byteOffset":0,"byteLength":22464,"target":34962,"byteStride":12},{"buffer":0,"byteOffset":22464,"byteLength":22464,"target":34962,"byteStride":12}],"buffers":[{"byteLength":44928,"uri":"data:application/octet-stream;base64,"}],"accessors":[{"bufferView":0,"componentType":5126,"count":1872,"max":[8.850000381469727,6.80992317199707,6.75],"min":[-10.850000381469727,0.20992299914360046,-18.350000381469727],"type":"VEC3"},{"bufferView":1,"componentType":5126,"count":1872,"max":[0,1,0],"min":[0,1,0],"type":"VEC3"}],"materials":[{"pbrMetallicRoughness":{"baseColorFactor":[0.5019607843137255,0.5019607843137255,0.5019607843137255,1],"metallicFactor":0,"roughnessFactor":1}}],"meshes":[{"primitives":[{"mode":4,"attributes":{"POSITION":0,"NORMAL":1},"material":0}]}]}